{
  "accessors": [
    {
      "bufferView": 2,
      "componentType": 5126,
      "count": 82,
      "max": [
        0.90273600816726685,
        -0.512565016746521,
        0.1550620049238205
      ],
      "min": [
        0.88781201839447021,
        -0.53634601831436157,
        0.10752800107002258
      ],
      "type": "VEC3"
    },
    {
      "bufferView": 2,
      "byteOffset": 984,
      "componentType": 5126,
      "count": 82,
      "max": [
        0.99947738647460938,
        0.98429310321807861,
        0.98480767011642456
      ],
      "min": [
        -0.99947726726531982,
        -0.032328605651855469,
        -0.98480790853500366
      ],
      "type": "VEC3"
    },
    {
      "bufferView": 3,
      "componentType": 5126,
      "count": 82,
      "max": [
        0.032328363507986069,
        0.99947017431259155,
        0.67879468202590942,
        1
      ],
      "min": [
        -0.99977236986160278,
        -0.99946975708007812,
        -0.68482547998428345,
        1
      ],
      "type": "VEC4"
    },
    {
      "bufferView": 1,
      "componentType": 5126,
      "count": 82,
      "max": [
        0.56662297248840332,
        0.043045800179243088
      ],
      "min": [
        0.54729801416397095,
        0.019426299259066582
      ],
      "type": "VEC2"
    },
    {
      "bufferView": 0,
      "componentType": 5125,
      "count": 216,
      "max": [
        81
      ],
      "min": [
        0
      ],
      "type": "SCALAR"
    },
    {
      "bufferView": 2,
      "byteOffset": 1968,
      "componentType": 5126,
      "count": 160,
      "max": [
        1,
        -0.5336570143699646,
        0.38244399428367615
      ],
      "min": [
        0.79054802656173706,
        -0.62147200107574463,
        0.064926698803901672
      ],
      "type": "VEC3"
    },
    {
      "bufferView": 2,
      "byteOffset": 3888,
      "componentType": 5126,
      "count": 160,
      "max": [
        0.99865514039993286,
        1,
        1
      ],
      "min": [
        -0.99865514039993286,
        -3.83037871642955e-07,
        -1
      ],
      "type": "VEC3"
    },
    {
      "bufferView": 3,
      "byteOffset": 1312,
      "componentType": 5126,
      "count": 160,
      "max": [
        0.98370319604873657,
        0.52053529024124146,
        0.31791451573371887,
        1
      ],
      "min": [
        -1,
        -0.99995702505111694,
        -0.99977207183837891,
        1
      ],
      "type": "VEC4"
    },
    {
      "bufferView": 1,
      "byteOffset": 656,
      "componentType": 5126,
      "count": 160,
      "max": [
        0.87372398376464844,
        0.80126500129699707
      ],
      "min": [
        0.53787201642990112,
        0.51430600881576538
      ],
      "type": "VEC2"
    },
    {
      "bufferView": 0,
      "byteOffset": 864,
      "componentType": 5125,
      "count": 510,
      "max": [
        159
      ],
      "min": [
        0
      ],
      "type": "SCALAR"
    },
    {
      "bufferView": 2,
      "byteOffset": 5808,
      "componentType": 5126,
      "count": 64,
      "max": [
        0.1665789932012558,
        -0.59319102764129639,
        -0.015593999996781349
      ],
      "min": [
        -0.46845701336860657,
        -0.65272599458694458,
        -0.65062898397445679
      ],
      "type": "VEC3"
    },
    {
      "bufferView": 2,
      "byteOffset": 6576,
      "componentType": 5126,
      "count": 64,
      "max": [
        1,
        1,
        1
      ],
      "min": [
        -1,
        -6.123230292458899e-17,
        -1
      ],
      "type": "VEC3"
    },
    {
      "bufferView": 3,
      "byteOffset": 3872,
      "componentType": 5126,
      "count": 64,
      "max": [
        0.57405233383178711,
        1,
        1,
        1
      ],
      "min": [
        -0.70678985118865967,
        -1,
        -6.123229630714409e-17,
        1
      ],
      "type": "VEC4"
    },
    {
      "bufferView": 1,
      "byteOffset": 1936,
      "componentType": 5126,
      "count": 64,
      "max": [
        0.75081497430801392,
        0.81975102424621582
      ],
      "min": [
        0.50488001108169556,
        0.57086402177810669
      ],
      "type": "VEC2"
    },
    {
      "bufferView": 0,
      "byteOffset": 2904,
      "componentType": 5125,
      "count": 90,
      "max": [
        63
      ],
      "min": [
        0
      ],
      "type": "SCALAR"
    },
    {
      "bufferView": 2,
      "byteOffset": 7344,
      "componentType": 5126,
      "count": 115,
      "max": [
        -0.092834398150444031,
        0.35936200618743896,
        -0.43256199359893799
      ],
      "min": [
        -0.21755599975585938,
        -0.61544299125671387,
        -0.55117899179458618
      ],
      "type": "VEC3"
    },
    {
      "bufferView": 2,
      "byteOffset": 8724,
      "componentType": 5126,
      "count": 115,
      "max": [
        1,
        1,
        0.95105654001235962
      ],
      "min": [
        -1,
        -1,
        -0.95105654001235962
      ],
      "type": "VEC3"
    },
    {
      "bufferView": 3,
      "byteOffset": 4896,
      "componentType": 5126,
      "count": 115,
      "max": [
        0.95105659961700439,
        0.70580106973648071,
        1,
        1
      ],
      "min": [
        -1,
        -1,
        -1,
        1
      ],
      "type": "VEC4"
    },
    {
      "bufferView": 1,
      "byteOffset": 2448,
      "componentType": 5126,
      "count": 115,
      "max": [
        0.98799997568130493,
        0.94744598865509033
      ],
      "min": [
        0.0099999997764825821,
        0.0099999997764825821
      ],
      "type": "VEC2"
    },
    {
      "bufferView": 0,
      "byteOffset": 3264,
      "componentType": 5125,
      "count": 330,
      "max": [
        114
      ],
      "min": [
        0
      ],
      "type": "SCALAR"
    },
    {
      "bufferView": 2,
      "byteOffset": 10104,
      "componentType": 5126,
      "count": 148,
      "max": [
        0.59890997409820557,
        0.65272599458694458,
        -0.23411400616168976
      ],
      "min": [
        -0.90930002927780151,
        -0.29982700943946838,
        -0.43256199359893799
      ],
      "type": "VEC3"
    },
    {
      "bufferView": 2,
      "byteOffset": 11880,
      "componentType": 5126,
      "count": 148,
      "max": [
        1,
        1,
        1
      ],
      "min": [
        -1,
        -1,
        -1
      ],
      "type": "VEC3"
    },
    {
      "bufferView": 3,
      "byteOffset": 6736,
      "componentType": 5126,
      "count": 148,
      "max": [
        1,
        1,
        0.9999997615814209,
        1
      ],
      "min": [
        -1,
        -0.70537477731704712,
        -0.99999982118606567,
        1
      ],
      "type": "VEC4"
    },
    {
      "bufferView": 1,
      "byteOffset": 3368,
      "componentType": 5126,
      "count": 148,
      "max": [
        0.99000000953674316,
        0.75342798233032227
      ],
      "min": [
        0.0099999997764825821,
        0.0099999997764825821
      ],
      "type": "VEC2"
    },
    {
      "bufferView": 0,
      "byteOffset": 4584,
      "componentType": 5125,
      "count": 300,
      "max": [
        147
      ],
      "min": [
        0
      ],
      "type": "SCALAR"
    },
    {
      "bufferView": 2,
      "byteOffset": 13656,
      "componentType": 5126,
      "count": 378,
      "max": [
        0.42882999777793884,
        -0.52086901664733887,
        0.65062898397445679
      ],
      "min": [
        -1,
        -0.63168001174926758,
        0.17435300350189209
      ],
      "type": "VEC3"
    },
    {
      "bufferView": 2,
      "byteOffset": 18192,
      "componentType": 5126,
      "count": 378,
      "max": [
        1,
        0.99653875827789307,
        1
      ],
      "min": [
        -1,
        -0.083130478858947754,
        -1
      ],
      "type": "VEC3"
    },
    {
      "bufferView": 3,
      "byteOffset": 9104,
      "componentType": 5126,
      "count": 378,
      "max": [
        0.99999392032623291,
        0.99972361326217651,
        0.99715107679367065,
        1
      ],
      "min": [
        -0.99998819828033447,
        -0.99732959270477295,
        -0.9996219277381897,
        1
      ],
      "type": "VEC4"
    },
    {
      "bufferView": 1,
      "byteOffset": 4552,
      "componentType": 5126,
      "count": 378,
      "max": [
        0.98782098293304443,
        0.9845309853553772
      ],
      "min": [
        0.0099999997764825821,
        0.019426299259066582
      ],
      "type": "VEC2"
    },
    {
      "bufferView": 0,
      "byteOffset": 5784,
      "componentType": 5125,
      "count": 936,
      "max": [
        377
      ],
      "min": [
        0
      ],
      "type": "SCALAR"
    }
  ],
  "asset": {
    "extras": {
      "author": "Tyler Halterman (https://sketchfab.com/tylerhalterman)",
      "license": "CC-BY-4.0 (http://creativecommons.org/licenses/by/4.0/)",
      "source": "https://sketchfab.com/3d-models/desktop-computer-561abc2fc95941609fc7bc6f232895c2",
      "title": "Desktop Computer"
    },
    "generator": "Sketchfab-4.84.0",
    "version": "2.0"
  },
  "bufferViews": [
    {
      "buffer": 0,
      "byteLength": 9528,
      "byteOffset": 0,
      "name": "floatBufferViews",
      "target": 34963
    },
    {
      "buffer": 0,
      "byteLength": 7576,
      "byteOffset": 9528,
      "byteStride": 8,
      "name": "floatBufferViews",
      "target": 34962
    },
    {
      "buffer": 0,
      "byteLength": 22728,
      "byteOffset": 17104,
      "byteStride": 12,
      "name": "floatBufferViews",
      "target": 34962
    },
    {
      "buffer": 0,
      "byteLength": 15152,
      "byteOffset": 39832,
      "byteStride": 16,
      "name": "floatBufferViews",
      "target": 34962
    }
  ],
  "buffers": [
    {
      "byteLength": 54984,
      "uri": "scene.bin"
    }
  ],
  "images": [
    {
      "uri": "textures/01___Default_normal.png"
    },
    {
      "uri": "textures/01___Default_metallicRoughness.png"
    },
    {
      "uri": "textures/01___Default_emissive.jpeg"
    },
    {
      "uri": "textures/01___Default_baseColor.jpeg"
    }
  ],
  "materials": [
    {
      "doubleSided": true,
      "emissiveFactor": [
        1,
        1,
        1
      ],
      "emissiveTexture": {
        "index": 2,
        "texCoord": 0
      },
      "name": "01___Default",
      "normalTexture": {
        "index": 0,
        "scale": 1,
        "texCoord": 0
      },
      "occlusionTexture": {
        "index": 1,
        "strength": 1,
        "texCoord": 0
      },
      "pbrMetallicRoughness": {
        "baseColorFactor": [
          1,
          1,
          1,
          1
        ],
        "baseColorTexture": {
          "index": 3,
          "texCoord": 0
        },
        "metallicFactor": 1,
        "metallicRoughnessTexture": {
          "index": 1,
          "texCoord": 0
        },
        "roughnessFactor": 1
      }
    }
  ],
  "meshes": [
    {
      "name": "defaultMaterial",
      "primitives": [
        {
          "attributes": {
            "NORMAL": 1,
            "POSITION": 0,
            "TANGENT": 2,
            "TEXCOORD_0": 3
          },
          "indices": 4,
          "material": 0,
          "mode": 4
        }
      ]
    },
    {
      "name": "defaultMaterial",
      "primitives": [
        {
          "attributes": {
            "NORMAL": 6,
            "POSITION": 5,
            "TANGENT": 7,
            "TEXCOORD_0": 8
          },
          "indices": 9,
          "material": 0,
          "mode": 4
        }
      ]
    },
    {
      "name": "defaultMaterial",
      "primitives": [
        {
          "attributes": {
            "NORMAL": 11,
            "POSITION": 10,
            "TANGENT": 12,
            "TEXCOORD_0": 13
          },
          "indices": 14,
          "material": 0,
          "mode": 4
        }
      ]
    },
    {
      "name": "defaultMaterial",
      "primitives": [
        {
          "attributes": {
            "NORMAL": 16,
            "POSITION": 15,
            "TANGENT": 17,
            "TEXCOORD_0": 18
          },
          "indices": 19,
          "material": 0,
          "mode": 4
        }
      ]
    },
    {
      "name": "defaultMaterial",
      "primitives": [
        {
          "attributes": {
            "NORMAL": 21,
            "POSITION": 20,
            "TANGENT": 22,
            "TEXCOORD_0": 23
          },
          "indices": 24,
          "material": 0,
          "mode": 4
        }
      ]
    },
    {
      "name": "defaultMaterial",
      "primitives": [
        {
          "attributes": {
            "NORMAL": 26,
            "POSITION": 25,
            "TANGENT": 27,
            "TEXCOORD_0": 28
          },
          "indices": 29,
          "material": 0,
          "mode": 4
        }
      ]
    }
  ],
  "nodes": [
    {
      "children": [
        1
      ],
      "name": "RootNode (gltf orientation matrix)",
      "rotation": [
        -0.70710678118654746,
        -0,
        -0,
        0.70710678118654757
      ]
    },
    {
      "children": [
        2
      ],
      "name": "RootNode (model correction matrix)"
    },
    {
      "children": [
        3,
        5,
        7,
        9,
        11,
        13
      ],
      "matrix": [
        1,
        0,
        0,
        0,
        0,
        -4.3711390063094768e-08,
        0.999999999999999,
        0,
        0,
        -0.999999999999999,
        -4.3711390063094768e-08,
        0,
        0,
        0,
        0,
        1
      ],
      "name": "Collada visual scene group"
    },
    {
      "children": [
        4
      ],
      "name": "Mouse_Wheel_Low"
    },
    {
      "mesh": 0,
      "name": "defaultMaterial"
    },
    {
      "children": [
        6
      ],
      "name": "Mouse_Low"
    },
    {
      "mesh": 1,
      "name": "defaultMaterial"
    },
    {
      "children": [
        8
      ],
      "name": "Base_Low"
    },
    {
      "mesh": 2,
      "name": "defaultMaterial"
    },
    {
      "children": [
        10
      ],
      "name": "Vert_Low"
    },
    {
      "mesh": 3,
      "name": "defaultMaterial"
    },
    {
      "children": [
        12
      ],
      "name": "Computer_Low"
    },
    {
      "mesh": 4,
      "name": "defaultMaterial"
    },
    {
      "children": [
        14
      ],
      "name": "Key_Board_Low"
    },
    {
      "mesh": 5,
      "name": "defaultMaterial"
    }
  ],
  "samplers": [
    {
      "magFilter": 9729,
      "minFilter": 9987,
      "wrapS": 10497,
      "wrapT": 10497
    }
  ],
  "scene": 0,
  "scenes": [
    {
      "name": "OSG_Scene",
      "nodes": [
        0
      ]
    }
  ],
  "textures": [
    {
      "sampler": 0,
      "source": 0
    },
    {
      "sampler": 0,
      "source": 1
    },
    {
      "sampler": 0,
      "source": 2
    },
    {
      "sampler": 0,
      "source": 3
    }
  ]
}

